<svg width="24" height="24" viewBox="0 0 24 24" fill="none" xmlns="http://www.w3.org/2000/svg">
<path fill-rule="evenodd" clip-rule="evenodd" d="M18.7071 10.2929C19.0976 10.6834 19.0976 11.3166 18.7071 11.7071L6.70711 23.7071C6.31658 24.0976 5.68342 24.0976 5.29289 23.7071C4.90237 23.3166 4.90237 22.6834 5.29289 22.2929L17.2929 10.2929C17.6834 9.90237 18.3166 9.90237 18.7071 10.2929Z" fill="#69B99D"/>
<path fill-rule="evenodd" clip-rule="evenodd" d="M5.29289 5.29289C5.68342 4.90237 6.31658 4.90237 6.70711 5.29289L18.7071 17.2929C19.0976 17.6834 19.0976 18.3166 18.7071 18.7071C18.3166 19.0976 17.6834 19.0976 17.2929 18.7071L5.29289 6.70711C4.90237 6.31658 4.90237 5.68342 5.29289 5.29289Z" fill="#69B99D"/>
</svg>
